<?xml version="1.0" encoding="UTF-8" standalone="no"?>
<svg
   xmlns:dc="http://purl.org/dc/elements/1.1/"
   xmlns:cc="http://creativecommons.org/ns#"
   xmlns:rdf="http://www.w3.org/1999/02/22-rdf-syntax-ns#"
   xmlns:svg="http://www.w3.org/2000/svg"
   xmlns="http://www.w3.org/2000/svg"
   xmlns:sodipodi="http://sodipodi.sourceforge.net/DTD/sodipodi-0.dtd"
   xmlns:inkscape="http://www.inkscape.org/namespaces/inkscape"
   enable-background="new 0 0 24 24"
   id="Layer_1"
   version="1.0"
   viewBox="0 0 24 24"
   xml:space="preserve"
   inkscape:version="0.91 r13725"
   sodipodi:docname="search.svg"><metadata
     id="metadata19"><rdf:RDF><cc:Work
         rdf:about=""><dc:format>image/svg+xml</dc:format><dc:type
           rdf:resource="http://purl.org/dc/dcmitype/StillImage" /></cc:Work></rdf:RDF></metadata><defs
     id="defs17" /><sodipodi:namedview
     pagecolor="#ffffff"
     bordercolor="#666666"
     borderopacity="1"
     objecttolerance="10"
     gridtolerance="10"
     guidetolerance="10"
     inkscape:pageopacity="0"
     inkscape:pageshadow="2"
     inkscape:window-width="1366"
     inkscape:window-height="740"
     id="namedview15"
     showgrid="false"
     inkscape:zoom="9.8333333"
     inkscape:cx="31.627119"
     inkscape:cy="12"
     inkscape:window-x="0"
     inkscape:window-y="28"
     inkscape:window-maximized="1"
     inkscape:current-layer="Layer_1" /><g
     id="g9"
     transform="matrix(0.64042759,0,0,0.63551968,-0.50119417,4.255855)"
     style="fill:#808080"><g
       id="g3350"
       style="fill:#808080"><g
         id="g3"
         style="fill:#808080"><g
           id="g5"
           style="fill:#808080"><path
             id="path7"
             d="m 9,4 c 2.8,0 5,2.2 5,5 0,2.8 -2.2,5 -5,5 C 6.2,14 4,11.8 4,9 4,6.2 6.2,4 9,4 M 9,2 C 5.1,2 2,5.1 2,9 c 0,3.9 3.1,7 7,7 3.9,0 7,-3.1 7,-7 C 16,5.1 12.9,2 9,2 l 0,0 z"
             inkscape:connector-curvature="0"
             style="fill:#808080" /></g></g><polygon
         id="polygon11"
         points="22,20.3 20.3,22 14,15.7 14,14 15.7,14 "
         style="fill:#808080" /></g><rect
       height="3.5999999"
       transform="matrix(0.7071,-0.7071,0.7071,0.7071,-5.9741,14.4227)"
       width="1.2"
       x="13.8"
       y="12.6"
       id="rect13"
       style="fill:#808080" /></g></svg>